<svg width="203" height="51" viewBox="0 0 203 51" fill="none" xmlns="http://www.w3.org/2000/svg">
<path d="M11.7875 50.8204C7.97597 50.8204 5.05851 49.7381 3.0351 47.5735C1.0117 45.4089 0 42.3503 0 38.3976V12.4228C0 8.47006 1.0117 5.41143 3.0351 3.24686C5.05851 1.08229 7.97597 0 11.7875 0C15.599 0 18.5165 1.08229 20.5399 3.24686C22.5633 5.41143 23.575 8.47006 23.575 12.4228V38.3976C23.575 42.3503 22.5633 45.4089 20.5399 47.5735C18.5165 49.7381 15.599 50.8204 11.7875 50.8204ZM11.7875 43.762C14.4697 43.762 15.8108 42.1385 15.8108 38.8917V11.9287C15.8108 8.68181 14.4697 7.05838 11.7875 7.05838C9.10531 7.05838 7.76422 8.68181 7.76422 11.9287V38.8917C7.76422 42.1385 9.10531 43.762 11.7875 43.762Z" fill="black"/>
<path d="M43.2955 50.8204C39.578 50.8204 36.7312 49.7616 34.7548 47.6441C32.8255 45.5266 31.8609 42.5385 31.8609 38.6799V12.1404C31.8609 8.28184 32.8255 5.29379 34.7548 3.17627C36.7312 1.05876 39.578 0 43.2955 0C47.0129 0 49.8362 1.05876 51.7655 3.17627C53.7419 5.29379 54.73 8.28184 54.73 12.1404V17.3636H47.3893V11.6463C47.3893 8.5877 46.0953 7.05838 43.5072 7.05838C40.9191 7.05838 39.6251 8.5877 39.6251 11.6463V39.2446C39.6251 42.2562 40.9191 43.762 43.5072 43.762C46.0953 43.762 47.3893 42.2562 47.3893 39.2446V31.6921H54.73V38.6799C54.73 42.5385 53.7419 45.5266 51.7655 47.6441C49.8362 49.7616 47.0129 50.8204 43.2955 50.8204Z" fill="black"/>
<path d="M68.9747 7.76422H60.8576V0.705838H84.8561V7.76422H76.739V50.1145H68.9747V7.76422Z" fill="black"/>
<path d="M95 1H100H105L113.468 50.1145H105.704L104.292 40.3034L104.383 40.9386H95.6411L95 50H87L95 1ZM103.758 37.0565L101.5 9H100H98.5L95.994 37.0565H103.758Z" fill="black"/>
<path d="M120.764 0.705838H128.528V43.0561H141.304V50.1145H120.764V0.705838Z" fill="#E93737"/>
<path d="M159.503 50.8204C155.692 50.8204 152.774 49.7381 150.751 47.5735C148.728 45.4089 147.716 42.3503 147.716 38.3976V12.4228C147.716 8.47006 148.728 5.41143 150.751 3.24686C152.774 1.08229 155.692 0 159.503 0C163.315 0 166.232 1.08229 168.256 3.24686C170.279 5.41143 171.291 8.47006 171.291 12.4228V38.3976C171.291 42.3503 170.279 45.4089 168.256 47.5735C166.232 49.7381 163.315 50.8204 159.503 50.8204ZM159.503 43.762C162.186 43.762 163.527 42.1385 163.527 38.8917V11.9287C163.527 8.68181 162.186 7.05838 159.503 7.05838C156.821 7.05838 155.48 8.68181 155.48 11.9287V38.8917C155.48 42.1385 156.821 43.762 159.503 43.762Z" fill="#E93737"/>
<path d="M191.082 50.8204C187.317 50.8204 184.447 49.7616 182.471 47.6441C180.494 45.4795 179.506 42.3973 179.506 38.3976V12.4228C179.506 8.423 180.494 5.36437 182.471 3.24686C184.447 1.08229 187.317 0 191.082 0C194.846 0 197.717 1.08229 199.693 3.24686C201.67 5.36437 202.658 8.423 202.658 12.4228V16.6578H195.317V11.9287C195.317 8.68181 193.976 7.05838 191.294 7.05838C188.612 7.05838 187.27 8.68181 187.27 11.9287V38.9623C187.27 42.1621 188.612 43.762 191.294 43.762C193.976 43.762 195.317 42.1621 195.317 38.9623V29.2923H191.435V22.2339H202.658V38.3976C202.658 42.3973 201.67 45.4795 199.693 47.6441C197.717 49.7616 194.846 50.8204 191.082 50.8204Z" fill="#E93737"/>
<path d="M95 1H100H105L113.468 50.1145H105.704L104.292 40.3034L104.383 40.9386H95.6411L95 50H87L95 1ZM103.758 37.0565L101.5 9H100H98.5L95.994 37.0565H103.758Z" fill="#E93737"/>
</svg>
